<svg width="197" height="42" viewBox="0 0 197 42" fill="none" xmlns="http://www.w3.org/2000/svg">
<g clip-path="url(#clip0)">
<path d="M53.9443 18.8182H50.7545L56.9006 1.4026H60.3626L66.4697 18.8182H63.1244L61.9963 15.5065H55.0334L53.9443 18.8182ZM58.5343 5.2987L56.0448 12.6623H61.0239L58.5343 5.2987Z" fill="#010202"/>
<path d="M67.131 12.4286C67.131 10.4805 67.5977 8.92208 68.5313 7.75325C69.037 7.12987 69.6983 6.66234 70.3985 6.31169C71.1764 5.92208 72.0711 5.72727 72.9269 5.72727C74.794 5.72727 76.2722 6.38961 77.3614 7.75325C77.9838 8.53247 78.3338 9.54545 78.3727 10.5195H75.2997C75.2997 10.0909 75.1441 9.7013 74.9107 9.31169C74.4829 8.64935 73.8605 8.33766 72.9269 8.37662C72.2267 8.33766 71.5265 8.64935 71.0598 9.15584C70.4763 9.77922 70.204 10.8701 70.204 12.4286C70.204 13.987 70.4763 15.039 71.0598 15.6623C71.5265 16.2078 72.2267 16.4805 72.9269 16.4805C73.8216 16.4805 74.4829 16.1688 74.9107 15.5065C75.1441 15.1558 75.2608 14.7273 75.2997 14.3377H78.3727C78.3338 15.3506 77.9838 16.3247 77.3614 17.1039C76.2722 18.4675 74.794 19.1299 72.9269 19.1299C72.0322 19.1299 71.1764 18.9351 70.3985 18.5455C69.6983 18.1948 69.037 17.7273 68.5313 17.1039C67.5977 15.8961 67.131 14.3377 67.131 12.4286Z" fill="#010202"/>
<path d="M80.0454 12.4286C80.0454 10.4805 80.5122 8.92208 81.4458 7.75325C81.9514 7.12987 82.6127 6.66234 83.3129 6.31169C84.0909 5.92208 84.9855 5.72727 85.8413 5.72727C87.7085 5.72727 89.1866 6.38961 90.2758 7.75325C90.8982 8.53247 91.2483 9.54545 91.2872 10.5195H88.2142C88.2142 10.0909 88.0586 9.7013 87.8252 9.31169C87.3973 8.64935 86.7749 8.33766 85.8413 8.37662C85.1411 8.33766 84.441 8.64935 83.9742 9.15584C83.3907 9.77922 83.1184 10.8701 83.1184 12.4286C83.1184 13.987 83.3907 15.039 83.9742 15.6623C84.441 16.2078 85.1411 16.4805 85.8413 16.4805C86.736 16.4805 87.3973 16.1688 87.8252 15.5065C88.0586 15.1558 88.1753 14.7273 88.2142 14.3377H91.2872C91.2483 15.3506 90.8982 16.3247 90.2758 17.1039C89.1866 18.4675 87.7085 19.1299 85.8413 19.1299C84.9466 19.1299 84.0909 18.9351 83.3129 18.5455C82.6127 18.1948 81.9514 17.7273 81.4458 17.1039C80.5122 15.8961 80.0454 14.3377 80.0454 12.4286Z" fill="#010202"/>
<path d="M98.9502 19.1688C98.0556 19.1688 97.1998 18.974 96.3829 18.5844C95.6438 18.2727 95.0215 17.7662 94.5158 17.1818C93.5433 15.9351 93.0376 14.3377 93.0376 12.4286C93.0376 10.5195 93.5433 8.92208 94.5158 7.67533C95.0215 7.05195 95.6827 6.58442 96.3829 6.27273C97.1998 5.88312 98.0556 5.68831 98.9502 5.72727C99.8449 5.72727 100.701 5.92208 101.518 6.31169C102.257 6.62338 102.879 7.12987 103.385 7.71429C104.357 8.96104 104.863 10.5584 104.863 12.4675C104.863 14.3766 104.357 15.9351 103.385 17.2208C102.879 17.8442 102.218 18.3117 101.518 18.6234C100.74 18.974 99.8449 19.1688 98.9502 19.1688ZM98.9891 8.37663C98.2501 8.37663 97.5499 8.64935 97.0442 9.19481C96.4218 9.85714 96.1106 10.9481 96.1106 12.4286C96.1106 13.9091 96.4218 15 97.0442 15.6623C97.5499 16.2078 98.2501 16.5195 98.9891 16.4805H99.028C99.7671 16.4805 100.467 16.2078 100.973 15.6623C101.595 15 101.907 13.9091 101.907 12.4286C101.907 10.9481 101.595 9.85714 100.973 9.19481C100.428 8.64935 99.7282 8.33766 98.9891 8.37663Z" fill="#010202"/>
<path d="M107.236 14.5714V6.03896H110.309V13.8312C110.309 15.4286 111.048 16.2468 112.526 16.2468C113.109 16.2468 113.693 16.013 114.082 15.6234C114.704 15.039 115.015 14.1039 115.015 12.7403V6.03896H118.088V18.8182H115.755L115.404 17.1039C115.054 17.7662 114.549 18.2727 113.887 18.5844C113.187 18.9351 112.409 19.1299 111.592 19.1299C110.231 19.1299 109.142 18.7013 108.364 17.8831C107.625 17.0649 107.236 15.9351 107.236 14.5714Z" fill="#010202"/>
<path d="M121.161 18.8182V6.03896H123.729L123.962 7.71429C124.312 7.09091 124.857 6.54545 125.518 6.23377C126.218 5.88312 126.957 5.72727 127.735 5.72727C129.097 5.72727 130.147 6.15584 130.925 7.01299C131.703 7.87013 132.092 8.96104 132.092 10.3247V18.8182H129.019V10.987C129.019 10.2078 128.863 9.58442 128.552 9.1948C128.241 8.80519 127.697 8.57143 126.919 8.57143C125.946 8.57143 125.207 9.11688 124.701 10.2078C124.429 10.8312 124.273 12 124.273 13.6364V18.8182H121.161Z" fill="#010202"/>
<path d="M133.609 8.57143V6.03896H135.943V2.80519L139.016 2.02597V6.03896H142.245V8.57143H139.016V14.8442C139.016 15.7792 139.483 16.2468 140.455 16.2468C141.117 16.2468 141.778 16.2078 142.439 16.1299V18.7792C141.583 18.9351 140.689 19.013 139.794 19.013C138.51 19.013 137.577 18.6623 136.916 18C136.254 17.3377 135.943 16.3636 135.943 15.1169V8.57143H133.609Z" fill="#010202"/>
<path d="M148.546 19.1688C147.068 19.1688 145.901 18.7792 145.084 18C144.267 17.2597 143.84 16.2468 143.84 15.1558C143.801 14.1039 144.229 13.0519 145.045 12.3506C145.862 11.6494 146.913 11.2597 148.157 11.1818L151.969 10.9091V10.1299C151.969 9.50649 151.814 9 151.503 8.64935C151.191 8.2987 150.608 8.14286 149.791 8.14286C148.313 8.14286 147.535 8.72727 147.457 9.8961H144.423C144.501 8.53247 145.045 7.48052 146.018 6.77922C146.99 6.07792 148.274 5.72727 149.791 5.72727C152.319 5.72727 153.992 6.62338 154.653 8.37662C154.887 9 155.042 9.85714 155.004 10.987V15.6623C154.965 15.8961 155.042 16.0909 155.159 16.2857C155.315 16.4026 155.509 16.4805 155.704 16.4805L156.093 16.4416V18.7403C155.626 18.974 155.12 19.0909 154.615 19.0909H154.576C153.992 19.1299 153.448 18.9351 153.02 18.5455C152.631 18.1948 152.397 17.7662 152.358 17.2597C152.008 17.8442 151.464 18.3506 150.841 18.6623C150.18 18.974 149.363 19.1688 148.546 19.1688ZM152.008 13.1299L148.702 13.3636C148.235 13.4026 147.807 13.5584 147.457 13.8701C147.107 14.1429 146.913 14.5714 146.951 15.039C146.951 15.4675 147.146 15.8961 147.496 16.1688C147.846 16.4416 148.313 16.5974 148.78 16.5974C149.752 16.5974 150.569 16.3247 151.153 15.8182C151.736 15.3117 152.047 14.6104 152.047 13.6753L152.008 13.1299Z" fill="#010202"/>
<path d="M158.31 18.8182V6.03896H160.877L161.111 7.71429C161.461 7.09091 162.005 6.54545 162.667 6.23377C163.367 5.88312 164.106 5.72727 164.884 5.72727C166.245 5.72727 167.296 6.15584 168.074 7.01299C168.852 7.87013 169.24 8.96104 169.24 10.3247V18.8182H166.167V10.987C166.167 10.2078 166.012 9.58442 165.701 9.1948C165.39 8.80519 164.845 8.57143 164.067 8.57143C163.094 8.57143 162.355 9.11688 161.85 10.2078C161.577 10.8312 161.422 12 161.422 13.6364V18.8182H158.31Z" fill="#010202"/>
<path d="M171.419 12.4286C171.419 10.4805 171.886 8.92208 172.819 7.75325C173.325 7.12987 173.986 6.66234 174.686 6.31169C175.464 5.92208 176.359 5.72727 177.215 5.72727C179.082 5.72727 180.56 6.38961 181.649 7.75325C182.272 8.53247 182.622 9.54545 182.661 10.5195H179.588C179.588 10.0909 179.432 9.7013 179.199 9.31169C178.771 8.64935 178.148 8.33766 177.215 8.37662C176.515 8.33766 175.814 8.64935 175.348 9.15584C174.764 9.77922 174.492 10.8701 174.492 12.4286C174.492 13.987 174.764 15.039 175.348 15.6623C175.814 16.2078 176.515 16.4805 177.215 16.4805C178.109 16.4805 178.771 16.1688 179.199 15.5065C179.432 15.1558 179.549 14.7273 179.588 14.3377H182.661C182.622 15.3506 182.272 16.3247 181.649 17.1039C180.56 18.4675 179.082 19.1299 177.215 19.1299C176.32 19.1299 175.464 18.9351 174.686 18.5455C173.986 18.1948 173.325 17.7273 172.819 17.1039C171.886 15.8961 171.419 14.3377 171.419 12.4286Z" fill="#010202"/>
<path d="M183.044 6.04364H186.428L189.773 15.2774L192.963 6.04364H196.075L190.435 21.0047C189.618 23.1475 188.295 24.1995 186.506 24.1995C185.689 24.1995 184.911 24.0826 184.133 23.8878V21.3553C184.716 21.4722 185.3 21.5501 185.844 21.5891C186.584 21.5891 187.05 21.2774 187.323 20.6151L188.062 18.8229L183.044 6.04364Z" fill="#010202"/>
<path d="M52.1549 36C51.8437 34.6364 51.6881 33.2727 51.727 31.8701C51.6881 30.5065 51.8437 29.1039 52.1549 27.7403C52.4661 26.6104 53.0496 25.5974 53.8664 24.7792C55.189 23.4545 56.8228 22.8312 58.8066 22.8312C60.7904 22.8312 62.4631 23.4935 63.7468 24.8571C64.6803 25.8312 65.2249 27.0779 65.3805 28.6364H62.1908C62.113 27.974 61.8407 27.3117 61.4128 26.8052C60.8293 26.1039 59.9736 25.7143 58.7677 25.7143C57.7563 25.6753 56.7839 26.1039 56.0837 26.8831C55.6947 27.3117 55.3835 27.8571 55.2279 28.4416C55.0723 28.987 54.9556 29.5325 54.9167 30.0779C54.8778 30.5065 54.8778 31.1299 54.8778 31.8701C54.8778 32.6104 54.8778 33.2338 54.9167 33.6623C54.9556 34.2078 55.0723 34.7922 55.2279 35.2987C55.3835 35.8831 55.6558 36.4286 56.0837 36.8571C56.7839 37.5974 57.7563 38.026 58.7677 38.026C59.9347 38.026 60.7904 37.6753 61.4128 36.9351C61.8796 36.3896 62.1519 35.7273 62.1908 35.026H65.3805C65.2249 36.5844 64.6803 37.8701 63.7468 38.8442C62.4631 40.2078 60.6737 40.9481 58.8066 40.9091C56.8228 40.9091 55.189 40.2468 53.8664 38.961C53.0496 38.1818 52.4661 37.1299 52.1549 36Z" fill="#010202"/>
<path d="M67.5589 37.3247V22.8312H70.6319V36.7792C70.593 37.0909 70.7097 37.4416 70.8653 37.7143C71.0208 37.9091 71.3709 38.026 71.8377 38.026C71.9155 38.026 72.0322 38.026 72.1489 38.026C72.2656 38.026 72.3045 38.026 72.3823 38.026V40.6364C71.9544 40.7143 71.4876 40.7922 71.0209 40.7922C69.9317 40.7922 69.0759 40.5195 68.4535 39.974C67.87 39.3896 67.5589 38.4935 67.5589 37.3247Z" fill="#010202"/>
<path d="M79.5008 40.9481C78.6061 40.9481 77.7504 40.7532 76.9335 40.3636C76.1944 40.0519 75.572 39.5455 75.0663 38.961C74.0939 37.7143 73.5882 36.1169 73.5882 34.2078C73.5882 32.2987 74.0939 30.7403 75.0663 29.4545C75.572 28.8312 76.2333 28.3636 76.9335 28.0519C77.7504 27.6623 78.6061 27.4675 79.5008 27.5065C80.3955 27.5065 81.2513 27.7013 82.0681 28.0909C82.8072 28.4026 83.4296 28.9091 83.9353 29.4935C84.9077 30.7403 85.4134 32.3377 85.4134 34.2468C85.4134 36.1558 84.9077 37.7143 83.9353 39C83.4296 39.6234 82.7683 40.0909 82.0681 40.4026C81.2513 40.7532 80.3955 40.9481 79.5008 40.9481ZM79.5008 30.1558C78.7617 30.1558 78.0616 30.4286 77.5559 30.974C76.9335 31.6364 76.6223 32.7273 76.6223 34.2078C76.6223 35.6883 76.9335 36.7792 77.5559 37.4416C78.0616 37.987 78.7617 38.2987 79.5008 38.2597C80.2399 38.2597 80.9401 37.987 81.4457 37.4416C82.0681 36.7792 82.3793 35.6883 82.3793 34.2078C82.3793 32.7273 82.0681 31.6364 81.4457 30.974C80.9401 30.4286 80.2399 30.1169 79.5008 30.1558Z" fill="#010202"/>
<path d="M87.6307 36.3507V27.8182H90.7037V35.6104C90.7037 37.2468 91.4428 38.026 92.9209 38.026C93.5044 38.026 94.0879 37.7922 94.4769 37.4026C95.0993 36.8182 95.4104 35.8831 95.4104 34.5195V27.8182H98.4835V40.6364H96.1495L95.7994 38.9221C95.4493 39.5844 94.9437 40.0909 94.2824 40.4026C93.5822 40.7533 92.8042 40.9481 91.9873 40.9481C90.6259 40.9481 89.5367 40.5195 88.7587 39.7013C88.0586 38.8442 87.6307 37.7532 87.6307 36.3507Z" fill="#010202"/>
<path d="M106.224 40.9091C105.096 40.9091 103.968 40.5584 103.112 39.8182C101.634 38.5714 100.856 36.7013 100.856 34.2467C100.856 31.7143 101.634 29.8052 103.112 28.5195C104.007 27.8182 105.096 27.4675 106.224 27.4675C107.78 27.4675 108.908 27.8571 109.57 28.6753V22.8312H112.643V40.6364H109.998L109.803 39.2727C109.103 40.3636 107.897 40.9091 106.224 40.9091ZM106.847 30.039C106.03 30.039 105.252 30.3896 104.785 31.0519C104.24 31.7532 103.968 32.8052 103.968 34.1688C103.968 35.5714 104.24 36.6234 104.785 37.3247C105.252 37.987 106.03 38.3766 106.847 38.3377C107.547 38.3766 108.247 38.1039 108.753 37.6364C109.414 36.974 109.764 35.8052 109.764 34.1688C109.764 32.8052 109.531 31.7532 109.025 31.0519C108.519 30.3896 107.78 30.039 106.847 30.039Z" fill="#010202"/>
<path d="M21.9305 42C10.3775 41.961 1.0418 32.5325 1.0807 20.961C1.1196 9.38961 10.5331 1.017e-06 22.125 0.0389621C30.4882 0.0779231 38.0346 5.1039 41.3021 12.8182C45.8144 23.4935 40.7964 35.8442 30.0993 40.3247C27.5319 41.4545 24.7312 42 21.9305 42ZM20.3745 17.6883C20.2578 17.6883 20.1411 17.6883 20.0245 17.6883C18.2351 17.7273 16.6402 18.2338 15.3566 19.1688C12.3614 21.3117 11.6612 25.4805 13.8006 28.4805C14.1507 28.9481 14.5397 29.4156 15.0065 29.7662C15.6289 30.3507 16.368 30.7792 17.1459 31.1299C17.9628 31.4805 18.8575 31.6753 19.7522 31.7143C19.8689 31.7143 19.9856 31.7143 20.1022 31.7143C21.6582 31.7143 23.1753 31.2468 24.4589 30.3507L24.809 30.1169V26.4935C23.3309 27.6623 21.8138 28.2857 20.4134 28.2857C20.3356 28.2857 20.2578 28.2857 20.1411 28.2857C18.8964 28.2468 17.7294 27.6623 16.9514 26.6883C16.1735 25.7143 15.979 24.4286 16.4069 23.2597C16.9514 21.8961 18.4296 20.9221 20.18 20.7273C20.3745 20.6883 20.6079 20.6883 20.8413 20.6883C22.2028 20.6883 23.5642 21.0779 24.7701 21.5065V18.4286C23.3698 17.961 21.8916 17.7273 20.3745 17.6883ZM21.8138 12.1558C21.9305 12.1558 22.0472 12.1558 22.1639 12.1558C23.3698 12.1948 24.4978 12.7403 25.3147 13.6364C26.1316 14.5325 26.5984 15.7013 26.5984 16.9091V28.5584C26.5984 30 27.7653 31.1299 29.2046 31.1299H32.5888V27.8182H30.2549V17.1818C30.2938 12.7013 26.7151 9.07792 22.2806 8.96104C22.1639 8.96104 22.0472 8.96104 21.9305 8.96104C19.4021 8.96104 17.1459 9.77922 15.6678 11.2208C14.3452 12.5065 13.6061 14.2597 13.6061 16.2468H17.2237C17.2237 15.1558 17.5738 14.1429 18.1573 13.5584C19.1298 12.5844 20.2578 12.1558 21.8138 12.1558Z" fill="#010202"/>
</g>
<defs>
<clipPath id="clip0">
<rect width="195.15" height="42" fill="white" transform="translate(0.92511)"/>
</clipPath>
</defs>
</svg>
